<?xml version="1.0" encoding="UTF-8"?>
<svg id="_Слой_1" data-name="Слой 1" xmlns="http://www.w3.org/2000/svg" viewBox="0 0 392.2 468.94">
  <defs>
    <style>
      .cls-1 {
        fill: #ffb33c;
        stroke: #ff5f26;
        stroke-miterlimit: 10;
        stroke-width: 5px;
      }
    </style>
  </defs>
  <path class="cls-1" d="M89.65,175.12c12.04,30.17,16.84,57.86,21.28,91.1,12.4,92.69,13.49,143.24-7.79,118.24-12.96-15.22-52.47-64.15-87.2-109.41-13.84-18.02-17.07-34.62-6.83-32.46,8.97,1.88,22.94,23.72,34.61,39.61,11.21,15.24,17.76,23,22.41,25.65,19.9,11.33,15.24-24.46,8.51-53.12-7.94-33.82-9.16-41-21.64-52.97-4.22-1.01-11.04,2.07-14.06,2.01-6.72-.14-21.03-16-23.27-39.84-2.13-22.62,4.51-28.66,14.1-40.94-1.21,0,12.2-11.32,18.89-51.1,1.03-8.9.64-10.04-2.56-12.06-3.54.27-5.08,1.02-7.6,2.44-6.85,3.63-19.67,21.61-27.3,23.36-6.23,1.43-11.16-6.24-7.36-20.61C9.48,43.71,43.48,6.67,57.98,3.04c18.98-4.75,30.07,22.31,26.14,75.38-1.54,20.84-5.82,42.55-10.97,62.73,4.84,6.49,9.15,15.16,13.35,26.09,1.25,3.13,1.88,4.71,3.15,7.88Z"/>
  <path class="cls-1" d="M242.57,296.59c-12.64,75.46-36.83,143.57-56.73,166.82-20.41,23.85-43.91-98.73-51.37-172.87-3.08-30.66-2.26-60.93,1.47-88.93,8.31-59.71,24.17-67.19,48.75-125.6,2.32-5.46,4.89-9.98,7.49-12.68,8.68-9,17.24-1.12,17.74,16.84.26,9.29-4.09,30.25-5.62,36.05-7.17,36.61-11.86,55.67-18.28,93.8,3.17-4.16,6.35-6.85,9.54-9.42,32.54-26.28,57.33,12.87,49.95,77.87-1.12,7.26-1.71,10.89-2.95,18.11ZM205.2,310.86c.57-12.11,2.09-13.53-8.22-12.29-2.31,1.13-10.77,7.14-14.22,14.42-1.15,3.61-9.89,14.12-8.6,34.98,0,0,1.19,33.31,11.28,30.53,2.89-.89,8.83-11.18,9.64-13.71,1.65-5.68,2.5-7.81,4.35-15.39.55-1.15,2.07-6.24,5.32-34.78.18-1.5.27-2.25.44-3.75Z"/>
  <path class="cls-1" d="M330.29,131.73c4.9-.28,10.08-3.49,15.17-3.37,32.62.73,43.79,53.89,26.96,95.66-28.36,70.38-91.3,134.97-113.63,159.14-10.17,11.01-23.71,12.03-12.56-36.18,5.15-22.27,17.9-48.22,27.54-53.26,11.19-5.86,8.76,12.83,19.08,8.15,8.49-3.85,32.91-39.86,40.68-64.07,2.19-6.83,4.36-20.02,1.96-20.95-6.28-2.43-29.63,31.94-41.47,36.53-12.4,4.81-16.24-18.89-13.41-48.24.74-7.69,1.67-15.48,2.85-24,5.34-39.07,7.3-77.59,9.66-111.68-.64-3.66-1.29-7.3-1.67-10.93-2.51-24.26,7.35-35.7,18.43-37.63,16.76-2.92,34.06,1.38,49.28,12.99,8.28,6.32,21.75,25.15,27.7,40.09,6.79,17.06.51,26.47-9.25,25.05-14.24-2.08-29.85-2.75-46.34-1.35.11,13.29-.08,20.14-.98,34.06Z"/>
</svg>